<svg id="farmland-logo" xmlns="http://www.w3.org/2000/svg" width="187.5" height="31.898" viewBox="0 0 187.5 31.898">
  <g id="symbol">
    <path id="Path_64" data-name="Path 64" d="M504.613,515.611s.652-3.822,5.6-4.2H525.1c3.6,0,6.138-5.126,3.889-9.735,0,0,.832,2.945-6.43,2.945H509.861C508.946,504.617,504.014,504.55,504.613,515.611Z" transform="translate(-504.563 -501.671)" fill="#00c2af"/>
    <path id="Path_65" data-name="Path 65" d="M529.366,548.765s.882,2.666-5.992,2.666H511.251a5.536,5.536,0,0,0-2.958.577c-1.85,1.126-2.9,3.46-2.9,7.181v8.955h0a6.185,6.185,0,0,0,6.185-6.185v-2.345a2.108,2.108,0,0,1,2.108-2.108H525.71C529.242,557.506,531.622,552.623,529.366,548.765Z" transform="translate(-505.175 -536.247)" fill="#00332e"/>
  </g>
  <g id="logotype" transform="translate(35.378 6.621)">
    <path id="Union_2" data-name="Union 2" d="M55.208,18.655V9.465h0V9.343c-.02-.456-.28-2.026-2.924-2.026-3.093,0-3.106,2.285-3.106,2.285v9.053H46.258V9.342c-.021-.455-.287-2.025-2.994-2.025C40.1,7.317,40.084,9.6,40.084,9.6v9.053h-2.92V4.5h2.92V5.15A5.933,5.933,0,0,1,43.172,4.5c3.192,0,4.459,1.632,4.459,1.632S48.9,4.5,52.448,4.5A5.576,5.576,0,0,1,57.48,7.176,4.887,4.887,0,0,1,58.128,9.6v9.053Zm-27.531,0V4.5H30.6v.65a6.934,6.934,0,0,1,3.166-.65h1.057V7.419H33.761C30.62,7.419,30.6,9.6,30.6,9.6v9.053Zm-5.266,0V17.91s-.827.745-3.382.745-5.665-1.04-5.665-4.254,3.058-4.273,4.883-4.273H22.41S22.92,7.3,19.463,7.3s-3.25,2.031-3.25,2.031l-2.85-.258C13.4,9.017,13.589,4.5,19.55,4.5s5.78,5.679,5.78,5.679v8.475Zm-6.152-4.289c0,1.355,1.693,1.372,1.693,1.372h2.085s2.374.087,2.374-2.762H17.986S16.258,13.012,16.258,14.366ZM0,18.654V0H11.017V2.918h-8.1v4.95h8.1v2.918h-8.1v7.868Z" transform="translate(0 0)" fill="#00332e"/>
    <path id="Union_1" data-name="Union 1" d="M53.921,18.655V18.03a8.316,8.316,0,0,1-3.306.625c-2,0-6.273-1.033-6.273-5.007V9.465c0-3.973,4.276-5.006,6.273-5.006a8.321,8.321,0,0,1,3.306.625V0h3.154V18.655ZM47.415,9.328v4.459s-.021,2.01,3.373,2.01c1.955,0,3.134-.752,3.134-2.148V9.465c0-1.4-1.179-2.148-3.134-2.148C47.394,7.317,47.415,9.328,47.415,9.328ZM38.91,18.655V9.315c-.021-.457-.3-2.032-3.164-2.032-3.348,0-3.361,2.294-3.361,2.294v9.079H29.3V4.459h3.086V5.11a8.286,8.286,0,0,1,3.5-.651C41.053,4.459,42,7.681,42,9.576v9.079Zm-15.073,0v-.747s-.884.747-3.61.747-6.046-1.044-6.046-4.266S17.445,10.1,19.392,10.1h4.444s.544-2.839-3.146-2.839S17.223,9.3,17.223,9.3L14.18,9.04c.037-.052.242-4.581,6.6-4.581s6.169,5.7,6.169,5.7v8.5Zm-6.566-4.3c0,1.358,1.806,1.376,1.806,1.376H21.3a2.5,2.5,0,0,0,2.534-2.77H19.114S17.27,13,17.27,14.354Zm-14.116,4.3H0V0H3.154V15.5h8.68v3.153Z" transform="translate(60.434 0)" fill="#00c2af"/>
    <g id="Group_12552" data-name="Group 12552" transform="translate(121.02 0)">
      <path id="Path_74" data-name="Path 74" d="M615.346,644.163l-4,12.384-4-12.384h-3.036l5.515,17.087.506,1.567h2.024l.506-1.567,5.514-17.087Z" transform="translate(-600.819 -644.163)" fill="#00332e" stroke="rgba(0,0,0,0)" stroke-width="1"/>
      <path id="Path_75" data-name="Path 75" d="M626.811,648.942a7.327,7.327,0,0,0-3.274.651v-.651h-2.884v14.2h2.884v-9.08s.013-2.293,3.141-2.293c2.675,0,2.938,1.575,2.958,2.032v9.341h2.884v-9.08C632.52,652.165,631.639,648.942,626.811,648.942Z" transform="translate(-601.918 -644.484)" fill="#00332e" stroke="rgba(0,0,0,0)" stroke-width="1"/>
      <circle id="Ellipse_1" data-name="Ellipse 1" cx="1.749" cy="1.749" r="1.749" transform="translate(0 15.157)" fill="#00332e" stroke="rgba(0,0,0,0)" stroke-width="1"/>
    </g>
  </g>
</svg>
