<svg id="farmland-logo" xmlns="http://www.w3.org/2000/svg" width="234.999" height="40" viewBox="0 0 234.999 40">
  <g id="symbol">
    <path id="Path_64" data-name="Path 64" d="M504.626,519.151s.818-4.793,7.02-5.272h18.665c4.511,0,7.7-6.428,4.877-12.208,0,0,1.043,3.694-8.063,3.694H511.207C510.059,505.365,503.875,505.281,504.626,519.151Z" transform="translate(-504.563 -501.671)" fill="#00c2af"/>
    <path id="Path_65" data-name="Path 65" d="M535.455,548.765s1.106,3.344-7.515,3.344h-15.2a6.942,6.942,0,0,0-3.709.724c-2.32,1.412-3.633,4.339-3.633,9v11.23h0a7.756,7.756,0,0,0,7.756-7.756v-2.94a2.644,2.644,0,0,1,2.644-2.644H530.87C535.3,559.727,538.284,553.6,535.455,548.765Z" transform="translate(-505.118 -533.067)" fill="#00332e"/>
  </g>
  <g id="logotype" transform="translate(44.365 8.303)">
    <path id="Union_2" data-name="Union 2" d="M69.231,23.393V11.869h0v-.155c-.025-.572-.351-2.541-3.667-2.541-3.879,0-3.9,2.866-3.9,2.866V23.393h-3.66V11.715c-.026-.571-.359-2.54-3.755-2.54-3.972,0-3.987,2.866-3.987,2.866V23.393H46.6V5.644h3.661v.814a7.44,7.44,0,0,1,3.872-.814c4,0,5.592,2.047,5.592,2.047s1.588-2.047,6.04-2.047A6.992,6.992,0,0,1,72.081,9a6.129,6.129,0,0,1,.812,3.042V23.393Zm-34.524,0V5.644h3.66v.815a8.7,8.7,0,0,1,3.97-.815h1.325V9.3H42.337c-3.94,0-3.97,2.738-3.97,2.738V23.393Zm-6.6,0v-.935s-1.038.935-4.242.935-7.1-1.3-7.1-5.334S20.593,12.7,22.881,12.7H28.1s.639-3.55-3.7-3.55S20.331,11.7,20.331,11.7l-3.574-.324c.044-.066.283-5.729,7.758-5.729s7.248,7.122,7.248,7.122V23.393Zm-7.715-5.378c0,1.7,2.123,1.72,2.123,1.72h2.614s2.977.109,2.977-3.463H22.554S20.388,16.317,20.388,18.016ZM0,23.393V0H13.815V3.659H3.661V9.867H13.815v3.659H3.661v9.867Z" transform="translate(0 0)" fill="#00332e"/>
    <path id="Union_1" data-name="Union 1" d="M67.618,23.393v-.784a10.428,10.428,0,0,1-4.146.784c-2.505,0-7.867-1.3-7.867-6.279V11.869c0-4.983,5.362-6.278,7.867-6.278a10.434,10.434,0,0,1,4.146.783V0h3.955V23.393ZM59.459,11.7v5.591s-.027,2.52,4.23,2.52c2.452,0,3.929-.942,3.929-2.693V11.869c0-1.751-1.478-2.694-3.929-2.694C59.432,9.175,59.459,11.7,59.459,11.7Zm-10.666,11.7V11.68c-.027-.573-.379-2.549-3.968-2.549-4.2,0-4.215,2.877-4.215,2.877V23.393h-3.87V5.592h3.87v.816A10.39,10.39,0,0,1,45,5.592c6.479,0,7.66,4.041,7.66,6.417V23.393Zm-18.9,0v-.937s-1.108.937-4.527.937-7.581-1.309-7.581-5.35,4.093-5.374,6.535-5.374h5.573s.682-3.561-3.945-3.561S21.6,11.662,21.6,11.662l-3.815-.325c.047-.066.3-5.745,8.279-5.745S33.8,12.735,33.8,12.735V23.393ZM21.657,18c0,1.7,2.265,1.725,2.265,1.725h2.791a3.128,3.128,0,0,0,3.178-3.474H23.969S21.657,16.3,21.657,18Zm-17.7,5.393H0V0H3.955V19.439H14.84v3.954Z" transform="translate(75.785 0)" fill="#00c2af"/>
    <g id="Group_12552" data-name="Group 12552" transform="translate(151.759 0)">
      <path id="Path_74" data-name="Path 74" d="M618.147,644.163l-5.012,15.529-5.012-15.529h-3.807l6.915,21.427.634,1.965H614.4l.634-1.965,6.915-21.427Z" transform="translate(-599.931 -644.163)" fill="#00332e" stroke="rgba(0,0,0,0)" stroke-width="1"/>
      <path id="Path_75" data-name="Path 75" d="M628.375,648.942a9.188,9.188,0,0,0-4.105.816v-.816h-3.617v17.8h3.617V655.359s.016-2.875,3.939-2.875c3.355,0,3.684,1.974,3.709,2.548v11.714h3.617V655.359C635.534,652.983,634.43,648.942,628.375,648.942Z" transform="translate(-597.159 -643.352)" fill="#00332e" stroke="rgba(0,0,0,0)" stroke-width="1"/>
      <circle id="Ellipse_1" data-name="Ellipse 1" cx="2.193" cy="2.193" r="2.193" transform="translate(0 19.007)" fill="#00332e" stroke="rgba(0,0,0,0)" stroke-width="1"/>
    </g>
  </g>
</svg>
